Coordinates
version=1
nRows=10
nColumns=40
inDegrees=yes

Units are S.I. units (second, meters, Newtons, ...)
If the header above contains a line with 'inDegrees', this indicates whether rotational values are in degrees (yes) or radians (no).

endheader
time	pelvis_tilt	pelvis_list	pelvis_rotation	pelvis_tx	pelvis_ty	pelvis_tz	hip_flexion_r	hip_adduction_r	hip_rotation_r	knee_angle_r	knee_angle_r_beta	ankle_angle_r	subtalar_angle_r	mtp_angle_r	hip_flexion_l	hip_adduction_l	hip_rotation_l	knee_angle_l	knee_angle_l_beta	ankle_angle_l	subtalar_angle_l	mtp_angle_l	lumbar_extension	lumbar_bending	lumbar_rotation	arm_flex_r	arm_add_r	arm_rot_r	elbow_flex_r	pro_sup_r	wrist_flex_r	wrist_dev_r	arm_flex_l	arm_add_l	arm_rot_l	elbow_flex_l	pro_sup_l	wrist_flex_l	wrist_dev_l
      1.15000000	     -0.21395573	      6.41515262	    -85.22496614	      0.25810832	      0.91352176	      0.86500264	     35.57127115	      0.47441766	     -6.38967997	      8.00099749	      0.13964375	     -1.37979772	      0.00000000	      0.00000000	    -13.51364385	      1.94622322	      5.64072801	     14.86170564	      0.25938570	      6.67160071	      0.00000000	      0.00000000	      1.13127192	     -0.68714660	     -5.44045175	      0.00000000	      0.00000000	      0.00000000	      0.00000000	      0.00000000	      0.00000000	      0.00000000	      0.00000000	      0.00000000	      0.00000000	      0.00000000	      0.00000000	      0.00000000	      0.00000000
      1.16000000	     -0.75524302	      6.57226579	    -85.07293787	      0.25813682	      0.91247522	      0.88357606	     36.00105747	      0.88060925	     -7.32885101	     10.06213402	      0.17561737	     -3.26483604	      0.00000000	      0.00000000	    -13.08539390	      1.18348479	      4.93780834	     17.08351161	      0.29816353	      4.83437872	      0.00000000	      0.00000000	      1.48958965	      0.04590316	     -5.41013801	      0.00000000	      0.00000000	      0.00000000	      0.00000000	      0.00000000	      0.00000000	      0.00000000	      0.00000000	      0.00000000	      0.00000000	      0.00000000	      0.00000000	      0.00000000	      0.00000000
      1.17000000	     -1.38657038	      6.81200578	    -84.95377226	      0.25812169	      0.91183879	      0.90224492	     36.47502280	      1.33662207	     -8.24780617	     12.14305308	      0.21193626	     -5.27554195	      0.00000000	      0.00000000	    -12.33353596	      0.30125975	      4.14641100	     19.56706116	      0.34150964	      2.44623573	      0.00000000	      0.00000000	      1.98868565	      0.87728545	     -5.34105748	      0.00000000	      0.00000000	      0.00000000	      0.00000000	      0.00000000	      0.00000000	      0.00000000	      0.00000000	      0.00000000	      0.00000000	      0.00000000	      0.00000000	      0.00000000	      0.00000000
      1.18000000	     -2.00342085	      6.99314089	    -84.89965342	      0.25800696	      0.91180025	      0.92088492	     36.81622030	      1.79751331	     -8.94342315	     14.17804920	      0.24745364	     -7.08406087	      0.00000000	      0.00000000	    -11.40699370	     -0.59961700	      3.32062793	     22.30752130	      0.38933969	     -0.50401944	      0.00000000	      0.00000000	      2.41022636	      1.70787998	     -5.20345337	      0.00000000	      0.00000000	      0.00000000	      0.00000000	      0.00000000	      0.00000000	      0.00000000	      0.00000000	      0.00000000	      0.00000000	      0.00000000	      0.00000000	      0.00000000	      0.00000000
      1.19000000	     -2.64738783	      7.17194657	    -84.89877318	      0.25777831	      0.91225427	      0.93946815	     37.05947294	      2.32246814	     -9.38061288	     16.10772967	      0.28113292	     -8.50296521	      0.00000000	      0.00000000	    -10.23657022	     -1.55924566	      2.51877648	     25.31096057	      0.44175960	     -4.03186593	      0.00000000	      0.00000000	      2.82229383	      2.56690207	     -4.99618322	      0.00000000	      0.00000000	      0.00000000	      0.00000000	      0.00000000	      0.00000000	      0.00000000	      0.00000000	      0.00000000	      0.00000000	      0.00000000	      0.00000000	      0.00000000	      0.00000000
      1.20000000	     -3.26782056	      7.22600489	    -84.95841240	      0.25743818	      0.91333418	      0.95793492	     37.08274977	      2.87869928	     -9.65964677	     17.95849342	      0.31343484	     -9.37122566	      0.00000000	      0.00000000	     -8.96082893	     -2.54787474	      1.72190170	     28.56274337	      0.49851392	     -7.96409315	      0.00000000	      0.00000000	      3.06505559	      3.40743068	     -4.71084323	      0.00000000	      0.00000000	      0.00000000	      0.00000000	      0.00000000	      0.00000000	      0.00000000	      0.00000000	      0.00000000	      0.00000000	      0.00000000	      0.00000000	      0.00000000	      0.00000000
      1.21000000	     -3.86019042	      7.25050222	    -85.06718906	      0.25694743	      0.91487307	      0.97614192	     36.92846808	      3.48641994	     -9.72903511	     19.57766698	      0.34169475	     -9.69901240	     -0.00000000	     -0.00000000	     -7.46693354	     -3.53559361	      1.01612035	     32.06949595	      0.55971829	    -12.19211806	      0.00000000	      0.00000000	      3.23118857	      4.20384933	     -4.37358291	     -0.00000000	      0.00000000	      0.00000000	      0.00000000	      0.00000000	      0.00000000	     -0.00000000	      0.00000000	      0.00000000	      0.00000000	      0.00000000	      0.00000000	      0.00000000	     -0.00000000
      1.22000000	     -4.42832608	      7.27178454	    -85.18825263	      0.25634622	      0.91677465	      0.99411401	     36.62867313	      4.13555581	     -9.61920928	     20.98258736	      0.36621524	     -9.55866938	      0.00000000	      0.00000000	     -5.76302699	     -4.51542860	      0.47916148	     35.75229124	      0.62399520	    -16.47100060	      0.00000000	      0.00000000	      3.37708237	      4.95001874	     -3.99235491	      0.00000000	      0.00000000	      0.00000000	      0.00000000	      0.00000000	      0.00000000	      0.00000000	      0.00000000	      0.00000000	      0.00000000	      0.00000000	      0.00000000	      0.00000000	      0.00000000
      1.23000000	     -4.95036898	      7.22293940	    -85.34329920	      0.25562873	      0.91905608	      1.01179678	     36.10806584	      4.80886099	     -9.44658368	     22.15633045	      0.38670092	     -9.05674542	      0.00000000	      0.00000000	     -3.95276043	     -5.45676145	      0.07351127	     39.55579513	      0.69037886	    -20.37800821	      0.00000000	      0.00000000	      3.39960642	      5.63619224	     -3.56989941	      0.00000000	      0.00000000	      0.00000000	      0.00000000	      0.00000000	      0.00000000	      0.00000000	      0.00000000	      0.00000000	      0.00000000	      0.00000000	      0.00000000	      0.00000000	      0.00000000
      1.24000000	     -5.40950290	      7.25494971	    -85.47444994	      0.25486167	      0.92149261	      1.02908998	     35.51560457	      5.46257777	     -9.17341120	     23.04434703	      0.40219973	     -8.30464519	      0.00000000	      0.00000000	     -1.86565759	     -6.29501307	     -0.11154144	     43.42829964	      0.75796682	    -23.72397474	      0.00000000	      0.00000000	      3.48077487	      6.20614406	     -3.18505222	      0.00000000	      0.00000000	      0.00000000	      0.00000000	      0.00000000	      0.00000000	      0.00000000	      0.00000000	      0.00000000	      0.00000000	      0.00000000	      0.00000000	      0.00000000	      0.00000000
